<svg width="48" height="47" viewBox="0 0 48 47" fill="none" xmlns="http://www.w3.org/2000/svg">
<path d="M26.1976 37.6412L32.829 31.2509C33.178 30.9147 33.7269 30.8679 34.1317 31.1399L44.3905 38.0347C44.9104 38.3842 44.9763 39.1016 44.528 39.5335L41.1199 42.8177C40.3966 43.5147 39.3665 43.8167 38.3799 43.5564C34.5 42.533 24.2243 39.2253 15.9331 31.2357C7.64201 23.246 4.20944 13.344 3.14743 9.60514C2.87738 8.65442 3.19074 7.66179 3.91403 6.9648L7.32215 3.6806C7.7704 3.24866 8.51486 3.31209 8.87749 3.81313L16.0325 13.6989C16.3148 14.0889 16.2662 14.6179 15.9173 14.9542L9.28589 21.3444" stroke="#F2F2F2" stroke-width="5" stroke-linecap="round"/>
</svg>
